<svg width="1274" height="170" viewBox="0 0 1274 170" fill="none" xmlns="http://www.w3.org/2000/svg">
<g opacity="0.36" clip-path="url(#clip0_53_592)">
<path d="M326.34 141.232V7.04831H366.103V141.232C366.103 154.176 363.266 165.303 357.592 174.612C351.918 183.832 344.16 190.925 334.319 195.89C324.567 200.855 313.573 203.337 301.339 203.337C288.661 203.337 277.445 201.209 267.693 196.954C257.941 192.698 250.272 186.182 244.686 177.405C239.101 168.539 236.308 157.324 236.308 143.759H276.337C276.337 150.852 277.312 156.481 279.263 160.648C281.302 164.815 284.183 167.785 287.907 169.558C291.631 171.332 296.108 172.218 301.339 172.218C306.392 172.218 310.781 171.021 314.504 168.628C318.228 166.234 321.109 162.732 323.149 158.122C325.276 153.511 326.34 147.882 326.34 141.232Z" fill="#ECF2FF"/>
<path d="M487.729 166.234V56.7855H526.03V200.677H489.99L487.729 166.234ZM491.985 136.711L503.289 136.445C503.289 146.02 502.181 154.93 499.964 163.175C497.748 171.332 494.423 178.424 489.99 184.453C485.557 190.393 479.972 195.048 473.234 198.417C466.496 201.697 458.561 203.337 449.429 203.337C442.425 203.337 435.953 202.362 430.013 200.411C424.162 198.372 419.108 195.225 414.853 190.969C410.686 186.625 407.405 181.084 405.012 174.346C402.706 167.519 401.554 159.318 401.554 149.743V56.7855H439.854V150.009C439.854 154.265 440.342 157.856 441.317 160.781C442.381 163.707 443.844 166.101 445.706 167.963C447.567 169.824 449.739 171.154 452.222 171.952C454.793 172.75 457.63 173.149 460.733 173.149C468.624 173.149 474.83 171.553 479.351 168.362C483.961 165.17 487.198 160.826 489.059 155.329C491.01 149.743 491.985 143.537 491.985 136.711Z" fill="#ECF2FF"/>
<path d="M598.451 88.1704V200.677H560.15V56.7855H596.19L598.451 88.1704ZM641.804 55.8545L641.139 91.3621C639.278 91.0961 637.017 90.8745 634.357 90.6971C631.786 90.4312 629.437 90.2982 627.309 90.2982C621.901 90.2982 617.202 91.0074 613.212 92.426C609.311 93.7558 606.031 95.7506 603.371 98.4104C600.8 101.07 598.85 104.306 597.52 108.118C596.279 111.931 595.569 116.275 595.392 121.151L587.679 118.757C587.679 109.448 588.61 100.893 590.471 93.0909C592.333 85.2003 595.037 78.3293 598.584 72.4779C602.219 66.6265 606.652 62.1049 611.882 58.9132C617.113 55.7216 623.098 54.1257 629.836 54.1257C631.963 54.1257 634.136 54.303 636.352 54.6577C638.568 54.9236 640.386 55.3226 641.804 55.8545Z" fill="#ECF2FF"/>
<path d="M705.182 56.7855V200.677H666.749V56.7855H705.182ZM664.355 19.2831C664.355 13.6977 666.306 9.08745 670.207 5.45247C674.108 1.81749 679.338 0 685.899 0C692.371 0 697.558 1.81749 701.459 5.45247C705.448 9.08745 707.443 13.6977 707.443 19.2831C707.443 24.8686 705.448 29.4788 701.459 33.1138C697.558 36.7487 692.371 38.5662 685.899 38.5662C679.338 38.5662 674.108 36.7487 670.207 33.1138C666.306 29.4788 664.355 24.8686 664.355 19.2831Z" fill="#ECF2FF"/>
<path d="M819.494 160.914C819.494 158.166 818.696 155.683 817.1 153.467C815.504 151.251 812.534 149.211 808.19 147.35C803.935 145.399 797.773 143.626 789.705 142.03C782.435 140.434 775.653 138.439 769.358 136.046C763.152 133.563 757.744 130.593 753.134 127.136C748.612 123.678 745.066 119.6 742.495 114.901C739.924 110.113 738.638 104.661 738.638 98.5434C738.638 92.5146 739.924 86.8405 742.495 81.521C745.154 76.2016 748.922 71.5027 753.798 67.4244C758.763 63.2575 764.792 60.0215 771.885 57.7164C779.066 55.3226 787.134 54.1257 796.088 54.1257C808.589 54.1257 819.317 56.1205 828.271 60.1101C837.314 64.0997 844.23 69.5965 849.017 76.6005C853.893 83.5158 856.331 91.4064 856.331 100.272H818.031C818.031 96.5486 817.233 93.2239 815.637 90.2982C814.13 87.2838 811.737 84.9344 808.456 83.2499C805.264 81.4767 801.098 80.5901 795.955 80.5901C791.7 80.5901 788.02 81.3437 784.917 82.8509C781.814 84.2694 779.421 86.2199 777.736 88.7023C776.14 91.0961 775.342 93.7558 775.342 96.6816C775.342 98.898 775.786 100.893 776.672 102.666C777.647 104.35 779.199 105.902 781.327 107.321C783.455 108.739 786.203 110.069 789.572 111.31C793.03 112.463 797.285 113.527 802.339 114.502C812.712 116.63 821.977 119.422 830.133 122.88C838.29 126.249 844.762 130.859 849.549 136.711C854.337 142.473 856.73 150.054 856.73 159.451C856.73 165.835 855.312 171.686 852.475 177.006C849.638 182.325 845.56 186.98 840.24 190.969C834.921 194.87 828.537 197.929 821.09 200.145C813.731 202.273 805.442 203.337 796.221 203.337C782.834 203.337 771.486 200.943 762.177 196.156C752.956 191.368 745.952 185.295 741.165 177.937C736.466 170.489 734.116 162.865 734.116 155.063H770.422C770.599 160.294 771.929 164.505 774.411 167.697C776.983 170.888 780.219 173.193 784.12 174.612C788.109 176.03 792.409 176.74 797.019 176.74C801.984 176.74 806.107 176.075 809.387 174.745C812.667 173.326 815.15 171.465 816.834 169.159C818.608 166.766 819.494 164.017 819.494 160.914Z" fill="#ECF2FF"/>
<path d="M924.763 84.4468V256H886.463V56.7855H921.97L924.763 84.4468ZM1015.86 127.136V129.928C1015.86 140.39 1014.62 150.098 1012.14 159.052C1009.74 168.007 1006.2 175.809 1001.5 182.458C996.797 189.019 990.946 194.161 983.942 197.885C977.027 201.52 969.047 203.337 960.004 203.337C951.227 203.337 943.603 201.564 937.131 198.018C930.659 194.471 925.206 189.506 920.773 183.123C916.429 176.651 912.927 169.159 910.267 160.648C907.607 152.137 905.568 143.005 904.15 133.253V125.939C905.568 115.477 907.607 105.902 910.267 97.2135C912.927 88.4364 916.429 80.8561 920.773 74.4727C925.206 68.0007 930.614 62.9915 936.998 59.4452C943.47 55.8989 951.05 54.1257 959.738 54.1257C968.87 54.1257 976.894 55.8545 983.809 59.3122C990.813 62.7699 996.664 67.7347 1001.36 74.2067C1006.15 80.6788 1009.74 88.392 1012.14 97.3465C1014.62 106.301 1015.86 116.231 1015.86 127.136ZM977.426 129.928V127.136C977.426 121.018 976.894 115.388 975.83 110.246C974.855 105.015 973.259 100.45 971.042 96.5486C968.915 92.6476 966.077 89.6332 962.531 87.5055C959.073 85.289 954.862 84.1808 949.897 84.1808C944.667 84.1808 940.189 85.023 936.466 86.7075C932.831 88.392 929.861 90.8301 927.556 94.0218C925.25 97.2135 923.522 101.026 922.369 105.459C921.216 109.892 920.507 114.901 920.241 120.486V138.971C920.685 145.532 921.926 151.428 923.965 156.659C926.004 161.801 929.151 165.879 933.407 168.894C937.663 171.908 943.248 173.415 950.163 173.415C955.217 173.415 959.472 172.307 962.93 170.09C966.388 167.785 969.18 164.638 971.308 160.648C973.525 156.659 975.076 152.048 975.963 146.818C976.938 141.587 977.426 135.957 977.426 129.928Z" fill="#ECF2FF"/>
<path d="M1082.83 88.1704V200.677H1044.53V56.7855H1080.57L1082.83 88.1704ZM1126.18 55.8545L1125.52 91.3621C1123.65 91.0961 1121.39 90.8745 1118.73 90.6971C1116.16 90.4312 1113.81 90.2982 1111.69 90.2982C1106.28 90.2982 1101.58 91.0074 1097.59 92.426C1093.69 93.7558 1090.41 95.7506 1087.75 98.4104C1085.18 101.07 1083.23 104.306 1081.9 108.118C1080.66 111.931 1079.95 116.275 1079.77 121.151L1072.06 118.757C1072.06 109.448 1072.99 100.893 1074.85 93.0909C1076.71 85.2003 1079.41 78.3293 1082.96 72.4779C1086.6 66.6265 1091.03 62.1049 1096.26 58.9132C1101.49 55.7216 1107.47 54.1257 1114.21 54.1257C1116.34 54.1257 1118.51 54.303 1120.73 54.6577C1122.95 54.9236 1124.76 55.3226 1126.18 55.8545Z" fill="#ECF2FF"/>
<path d="M1139.02 130.194V127.402C1139.02 116.851 1140.53 107.143 1143.55 98.2774C1146.56 89.3229 1150.95 81.5654 1156.71 75.0047C1162.47 68.444 1169.57 63.3461 1177.99 59.7112C1186.41 55.9875 1196.08 54.1257 1206.98 54.1257C1217.89 54.1257 1227.59 55.9875 1236.1 59.7112C1244.62 63.3461 1251.75 68.444 1257.52 75.0047C1263.37 81.5654 1267.8 89.3229 1270.81 98.2774C1273.83 107.143 1275.34 116.851 1275.34 127.402V130.194C1275.34 140.656 1273.83 150.364 1270.81 159.318C1267.8 168.184 1263.37 175.942 1257.52 182.591C1251.75 189.152 1244.66 194.25 1236.24 197.885C1227.81 201.52 1218.15 203.337 1207.25 203.337C1196.34 203.337 1186.63 201.52 1178.12 197.885C1169.7 194.25 1162.56 189.152 1156.71 182.591C1150.95 175.942 1146.56 168.184 1143.55 159.318C1140.53 150.364 1139.02 140.656 1139.02 130.194ZM1177.32 127.402V130.194C1177.32 136.223 1177.86 141.853 1178.92 147.084C1179.98 152.314 1181.67 156.925 1183.97 160.914C1186.37 164.815 1189.47 167.874 1193.28 170.09C1197.09 172.307 1201.75 173.415 1207.25 173.415C1212.57 173.415 1217.13 172.307 1220.94 170.09C1224.76 167.874 1227.81 164.815 1230.12 160.914C1232.43 156.925 1234.11 152.314 1235.17 147.084C1236.33 141.853 1236.9 136.223 1236.9 130.194V127.402C1236.9 121.55 1236.33 116.053 1235.17 110.911C1234.11 105.68 1232.38 101.07 1229.99 97.0805C1227.68 93.0023 1224.62 89.8106 1220.81 87.5055C1217 85.2003 1212.39 84.0478 1206.98 84.0478C1201.57 84.0478 1196.96 85.2003 1193.15 87.5055C1189.43 89.8106 1186.37 93.0023 1183.97 97.0805C1181.67 101.07 1179.98 105.68 1178.92 110.911C1177.86 116.053 1177.32 121.55 1177.32 127.402Z" fill="#ECF2FF"/>
<path d="M55.9075 0C103.429 0 150.95 0 199.912 0C199.912 19.022 199.912 38.044 199.912 57.6424C209.416 57.6424 218.92 57.6424 228.713 57.6424C235.614 62.2795 239.079 65.0001 244.066 71.0993C245.81 73.0187 245.81 73.0187 247.59 74.9768C255.819 84.1498 255.819 84.1498 255.819 86.4636C237.37 86.4636 218.92 86.4636 199.912 86.4636C199.912 123.948 199.912 161.433 199.912 200.053C198.794 200.053 197.675 200.053 196.523 200.053C194.075 197.563 194.075 197.563 191.229 194.119C186.771 188.69 186.771 188.69 181.375 184.259C176.082 180.24 171.939 176.404 170.348 169.725C169.158 159.883 169.558 149.969 169.787 140.079C169.813 136.868 169.832 133.656 169.845 130.445C169.897 122.026 170.03 113.611 170.18 105.194C170.344 95.0763 170.406 84.9578 170.485 74.8393C170.616 59.4977 170.875 44.1632 171.111 28.8212C142.598 28.8212 114.085 28.8212 84.7084 28.8212C84.7084 38.3322 84.7084 47.8432 84.7084 57.6424C109.308 57.6424 133.907 57.6424 159.252 57.6424C159.252 67.1534 159.252 76.6644 159.252 86.4636C153.661 86.4636 148.07 86.4636 142.31 86.4636C142.31 142.411 142.31 198.358 142.31 256C138.397 252.643 134.483 249.286 130.451 245.828C128.072 244.071 128.072 244.071 125.645 242.279C118.483 236.431 113.431 231.193 112.041 221.87C111.335 213.265 111.601 204.687 111.855 196.066C111.886 192.898 111.91 189.729 111.927 186.56C111.992 178.269 112.158 169.983 112.346 161.694C112.52 153.216 112.597 144.737 112.682 136.258C112.863 119.658 113.152 103.061 113.509 86.4636C112.487 86.5238 111.465 86.584 110.411 86.6461C99.638 87.2527 88.8694 87.6578 78.0831 87.9536C74.0756 88.0889 70.0695 88.2732 66.0667 88.5099C31.0443 90.527 31.0443 90.527 18.252 80.3642C11.434 74.0056 5.19178 67.1016 0 59.3377C0 58.7783 0 58.2188 0 57.6424C18.4495 57.6424 36.899 57.6424 55.9075 57.6424C55.9075 38.6204 55.9075 19.5984 55.9075 0Z" fill="#ECF2FF"/>
<path d="M85.6147 96.6309H55.9458V167.836C56.6239 175.974 63.5749 181.964 66.9657 183.942C69.0001 184.62 77.9855 194.962 82.2239 200.048H85.6147V96.6309Z" fill="#ECF2FF"/>
</g>
<defs>
<clipPath id="clip0_53_592">
<rect width="1274" height="170" fill="white"/>
</clipPath>
</defs>
</svg>
