<svg width="18" height="18" viewBox="0 0 18 18" fill="none" xmlns="http://www.w3.org/2000/svg">
<path d="M3.19421 12.4434C2.35557 11.0297 2.06187 9.35841 2.36826 7.74344C2.67466 6.12847 3.56006 4.6809 4.85823 3.67254C6.15639 2.66419 7.77801 2.16442 9.41858 2.26709C11.0592 2.36975 12.6058 3.06778 13.7681 4.2301C14.9305 5.39243 15.6285 6.93909 15.7312 8.57966C15.8339 10.2202 15.3341 11.8418 14.3257 13.14C13.3174 14.4382 11.8698 15.3236 10.2549 15.63C8.63989 15.9364 6.96862 15.6427 5.55486 14.8041L5.55488 14.804L3.22356 15.4701C3.12711 15.4977 3.02504 15.4989 2.92793 15.4738C2.83082 15.4486 2.74221 15.3979 2.67128 15.327C2.60034 15.2561 2.54967 15.1674 2.52451 15.0703C2.49935 14.9732 2.50061 14.8712 2.52817 14.7747L3.19426 12.4434L3.19421 12.4434Z" stroke="#334466" stroke-linecap="round" stroke-linejoin="round"/>
<path d="M9 9.84375C9.46599 9.84375 9.84375 9.46599 9.84375 9C9.84375 8.53401 9.46599 8.15625 9 8.15625C8.53401 8.15625 8.15625 8.53401 8.15625 9C8.15625 9.46599 8.53401 9.84375 9 9.84375Z" fill="#334466"/>
<path d="M5.625 9.84375C6.09099 9.84375 6.46875 9.46599 6.46875 9C6.46875 8.53401 6.09099 8.15625 5.625 8.15625C5.15901 8.15625 4.78125 8.53401 4.78125 9C4.78125 9.46599 5.15901 9.84375 5.625 9.84375Z" fill="#334466"/>
<path d="M12.375 9.84375C12.841 9.84375 13.2188 9.46599 13.2188 9C13.2188 8.53401 12.841 8.15625 12.375 8.15625C11.909 8.15625 11.5312 8.53401 11.5312 9C11.5312 9.46599 11.909 9.84375 12.375 9.84375Z" fill="#334466"/>
</svg>
