<svg width="28" height="30" viewBox="0 0 28 30" fill="none" xmlns="http://www.w3.org/2000/svg">
<g filter="url(#filter0_d_115_1909)">
<path fill-rule="evenodd" clip-rule="evenodd" d="M6 10C6 6.68629 8.68629 4 12 4C15.3137 4 18 6.68629 18 10C18 13.3137 15.3137 16 12 16C8.68629 16 6 13.3137 6 10ZM12 2C7.58172 2 4 5.58172 4 10C4 14.4183 7.58172 18 12 18C13.8487 18 15.551 17.3729 16.9056 16.3199L22.2929 21.7071C22.6834 22.0976 23.3166 22.0976 23.7071 21.7071C24.0976 21.3166 24.0976 20.6834 23.7071 20.2929L18.3199 14.9056C19.3729 13.551 20 11.8487 20 10C20 5.58172 16.4183 2 12 2Z" fill="#334466"/>
</g>
<defs>
<filter id="filter0_d_115_1909" x="-2" y="0" width="32" height="32" filterUnits="userSpaceOnUse" color-interpolation-filters="sRGB">
<feFlood flood-opacity="0" result="BackgroundImageFix"/>
<feColorMatrix in="SourceAlpha" type="matrix" values="0 0 0 0 0 0 0 0 0 0 0 0 0 0 0 0 0 0 127 0" result="hardAlpha"/>
<feOffset dy="4"/>
<feGaussianBlur stdDeviation="2"/>
<feComposite in2="hardAlpha" operator="out"/>
<feColorMatrix type="matrix" values="0 0 0 0 0 0 0 0 0 0 0 0 0 0 0 0 0 0 0.25 0"/>
<feBlend mode="normal" in2="BackgroundImageFix" result="effect1_dropShadow_115_1909"/>
<feBlend mode="normal" in="SourceGraphic" in2="effect1_dropShadow_115_1909" result="shape"/>
</filter>
</defs>
</svg>
