<svg width="20" height="20" viewBox="0 0 20 20" fill="none" xmlns="http://www.w3.org/2000/svg">
<g clip-path="url(#clip0_97_2009)">
<path d="M19.995 20.0008V20H20V12.665C20 9.07667 19.2275 6.3125 15.0325 6.3125C13.0158 6.3125 11.6625 7.41917 11.11 8.46833H11.0517V6.6475H7.07416V20H11.2158V13.3883C11.2158 11.6475 11.5458 9.96417 13.7017 9.96417C15.8258 9.96417 15.8575 11.9508 15.8575 13.5V20.0008H19.995Z" fill="#EDEFF2"/>
<path d="M0.330017 6.64844H4.47668V20.0009H0.330017V6.64844Z" fill="#EDEFF2"/>
<path d="M2.40167 0C1.07583 0 0 1.07583 0 2.40167C0 3.7275 1.07583 4.82583 2.40167 4.82583C3.7275 4.82583 4.80333 3.7275 4.80333 2.40167C4.8025 1.07583 3.72667 0 2.40167 0V0Z" fill="#EDEFF2"/>
</g>
<defs>
<clipPath id="clip0_97_2009">
<rect width="20" height="20" fill="white"/>
</clipPath>
</defs>
</svg>
