<svg width="18" height="18" viewBox="0 0 18 18" fill="none" xmlns="http://www.w3.org/2000/svg">
<g clip-path="url(#clip0_138_3576)">
<path d="M15.8496 3.55H13.7996V1.5H12.7746V3.55H10.7246V4.575H12.7746V6.625H13.7996V4.575H15.8496V3.55Z" fill="#334466"/>
<path d="M6.36914 7.13676C6.11573 7.13676 5.86802 7.2119 5.65732 7.35269C5.44662 7.49348 5.2824 7.69358 5.18542 7.9277C5.08845 8.16181 5.06307 8.41943 5.11251 8.66797C5.16195 8.91651 5.28397 9.1448 5.46316 9.32399C5.64235 9.50318 5.87064 9.6252 6.11918 9.67464C6.36772 9.72408 6.62534 9.69871 6.85945 9.60173C7.09357 9.50476 7.29368 9.34053 7.43446 9.12983C7.57525 8.91913 7.65039 8.67142 7.65039 8.41801C7.65176 8.24937 7.61955 8.08215 7.55564 7.92609C7.49174 7.77002 7.39741 7.62823 7.27817 7.50899C7.15892 7.38974 7.01713 7.29541 6.86107 7.23151C6.705 7.1676 6.53778 7.13539 6.36914 7.13676Z" fill="#334466"/>
<path d="M10.9805 7.13676C10.7271 7.13676 10.4793 7.2119 10.2686 7.35269C10.0579 7.49348 9.89372 7.69358 9.79675 7.9277C9.69977 8.16181 9.6744 8.41943 9.72384 8.66797C9.77328 8.91651 9.8953 9.1448 10.0745 9.32399C10.2537 9.50318 10.482 9.6252 10.7305 9.67464C10.979 9.72408 11.2367 9.69871 11.4708 9.60173C11.7049 9.50476 11.905 9.34053 12.0458 9.12983C12.1866 8.91913 12.2617 8.67142 12.2617 8.41801C12.2631 8.24937 12.2309 8.08215 12.167 7.92609C12.1031 7.77002 12.0087 7.62823 11.8895 7.50899C11.7702 7.38974 11.6285 7.29541 11.4724 7.23151C11.3163 7.1676 11.1491 7.13539 10.9805 7.13676Z" fill="#334466"/>
<path d="M5.08789 11.75C5.4563 12.3737 5.98094 12.8906 6.61005 13.2496C7.23917 13.6087 7.95102 13.7975 8.67539 13.7975C9.39976 13.7975 10.1116 13.6087 10.7407 13.2496C11.3698 12.8906 11.8945 12.3737 12.2629 11.75H5.08789Z" fill="#334466"/>
<path d="M14.7328 8.67344C14.9428 9.91631 14.7659 11.1937 14.226 12.3327C13.6861 13.4718 12.8092 14.4174 11.7141 15.0415C10.6189 15.6657 9.35848 15.9383 8.10331 15.8224C6.84814 15.7065 5.6589 15.2077 4.69658 14.3936C3.73427 13.5794 3.04536 12.4892 2.72312 11.2706C2.40089 10.052 2.46089 8.76378 2.895 7.58039C3.32912 6.39699 4.11638 5.37557 5.15021 4.6544C6.18404 3.93324 7.4145 3.54716 8.675 3.54844V2.52344C7.25592 2.52344 5.86871 2.94424 4.68879 3.73264C3.50886 4.52104 2.58923 5.64162 2.04617 6.95268C1.50311 8.26374 1.36102 9.7064 1.63787 11.0982C1.91472 12.49 2.59807 13.7685 3.60151 14.7719C4.60495 15.7754 5.88342 16.4587 7.27523 16.7356C8.66704 17.0124 10.1097 16.8703 11.4208 16.3273C12.7318 15.7842 13.8524 14.8646 14.6408 13.6847C15.4292 12.5047 15.85 11.1175 15.85 9.69844C15.846 9.3553 15.8186 9.01284 15.768 8.67344H14.7328Z" fill="#334466"/>
</g>
<defs>
<clipPath id="clip0_138_3576">
<rect width="18" height="18" fill="white"/>
</clipPath>
</defs>
</svg>
