<svg width="20" height="22" viewBox="0 0 20 22" fill="none" xmlns="http://www.w3.org/2000/svg">
<path fill-rule="evenodd" clip-rule="evenodd" d="M13.7502 3.50025C13.7502 2.80287 13.9931 2.12726 14.4372 1.58957C14.8813 1.05188 15.4988 0.685701 16.1837 0.553994C16.8685 0.422286 17.5778 0.533277 18.1897 0.867885C18.8015 1.20249 19.2777 1.73981 19.5363 2.38746C19.7949 3.03511 19.8198 3.75263 19.6068 4.41666C19.3937 5.08068 18.9559 5.64973 18.3687 6.02596C17.7815 6.4022 17.0816 6.56211 16.3893 6.47822C15.697 6.39432 15.0556 6.07185 14.5752 5.56625L6.15423 10.2453C6.28289 10.7404 6.28289 11.2601 6.15423 11.7553L14.5752 16.4343C15.0785 15.9051 15.7574 15.5777 16.4848 15.5134C17.2122 15.4491 17.9381 15.6523 18.5263 16.0849C19.1146 16.5175 19.5249 17.1499 19.6803 17.8633C19.8357 18.5768 19.7255 19.3225 19.3705 19.9606C19.0154 20.5986 18.4398 21.0853 17.7515 21.3293C17.0633 21.5733 16.3097 21.558 15.632 21.2861C14.9543 21.0142 14.399 20.5044 14.0702 19.8524C13.7415 19.2004 13.6618 18.4508 13.8462 17.7443L5.42523 13.0663C5.01209 13.5012 4.47801 13.8024 3.89198 13.9308C3.30595 14.0591 2.6949 14.0089 2.13773 13.7864C1.58056 13.564 1.10288 13.1796 0.766372 12.683C0.429868 12.1863 0.25 11.6002 0.25 11.0003C0.25 10.4003 0.429868 9.81418 0.766372 9.31752C1.10288 8.82086 1.58056 8.43649 2.13773 8.21406C2.6949 7.99164 3.30595 7.94137 3.89198 8.06975C4.47801 8.19813 5.01209 8.49926 5.42523 8.93425L13.8462 4.25525C13.7823 4.00868 13.7501 3.75497 13.7502 3.50025Z" fill="#334466"/>
</svg>
